{"title":"Frozen.2013.1080p.BluRay.x264.YIFY.mp4","uid":9861266,"size":1755005744,"categoryP":"video","categoryS":"hd___movies","magnet":"?xt=urn:btih:5ef18c5dfcabd5e6143217efc9188a14aad61578&amp;dn=Frozen.2013.1080p.BluRay.x264.YIFY.mp4&amp;tr=udp%3A%2F%2Ftracker.openbittorrent.com%3A80&amp;tr=udp%3A%2F%2Fopen.demonii.com%3A1337&amp;tr=udp%3A%2F%2Ftracker.coppersurfer.tk%3A6969&amp;tr=udp%3A%2F%2Fexodus.desync.com%3A6969","seeders":37,"leechers":0,"uploader":"haloReD","files":1,"time":1396303104,"description":"                      Frozen 2013 1080p BluRay x264\n\nGeneral:\n\nName                     : Frozen.2013.1080p.BluRay.x264.YIFY.mp4\nFormat                   : MPEG-4\nCodec ID                 : isom\nFile size                : 1.63 GiB\nDuration                 : 1h 42mn\nOverall bit rate mode    : Variable\nOverall bit rate         : 2 289 Kbps\n\n\nVideo:\n\nFormat                   : AVC\nDuration                 : 1h 42mn\nBit rate                 : 2 193 Kbps\nMaximum bit rate         : 26.0 Mbps\nWidth                    : 1 920 pixels\nHeight                   : 856 pixels\nDisplay aspect ratio     : 2.25:1\nFrame rate               : 23.976 fps\nStream size              : 1.56 GiB (96%)\n\n\nAudio:\n\nFormat                   : AAC\nCodec ID                 : 40\nDuration                 : 1h 42mn\nBit rate mode            : Variable\nBit rate                 : 93.7 Kbps\nMaximum bit rate         : 103 Kbps\nChannel(s)               : 2 channels\nSampling rate            : 48.0 KHz\nCompression mode         : Lossy\nStream size              : 68.5 MiB (4%)\nLanguage                 : English\n\nScreens:\n &lt;a href=&quot;\nhttp://i.imgur.com/WoSuiF0.png&quot; rel=&quot;nofollow&quot; target=&quot;_NEW&quot;&gt;\nhttp://i.imgur.com/WoSuiF0.png&lt;/a&gt;\n &lt;a href=&quot;\nhttp://i.imgur.com/vTpYRsH.png&quot; rel=&quot;nofollow&quot; target=&quot;_NEW&quot;&gt;\nhttp://i.imgur.com/vTpYRsH.png&lt;/a&gt;\n &lt;a href=&quot;\nhttp://i.imgur.com/t58BfNc.png&quot; rel=&quot;nofollow&quot; target=&quot;_NEW&quot;&gt;\nhttp://i.imgur.com/t58BfNc.png&lt;/a&gt;\n &lt;a href=&quot;\nhttp://i.imgur.com/B9cAWJK.png&quot; rel=&quot;nofollow&quot; target=&quot;_NEW&quot;&gt;\nhttp://i.imgur.com/B9cAWJK.png&lt;/a&gt;","torrent":{"xt":"urn:btih:5ef18c5dfcabd5e6143217efc9188a14aad61578","amp;dn":"Frozen.2013.1080p.BluRay.x264.YIFY.mp4","amp;tr":["udp%3A%2F%2Ftracker.openbittorrent.com%3A80","udp%3A%2F%2Fopen.demonii.com%3A1337","udp%3A%2F%2Ftracker.coppersurfer.tk%3A6969","udp%3A%2F%2Fexodus.desync.com%3A6969"],"infoHash":"5ef18c5dfcabd5e6143217efc9188a14aad61578","infoHashBuffer":{"type":"Buffer","data":[94,241,140,93,252,171,213,230,20,50,23,239,201,24,138,20,170,214,21,120]},"announce":[],"urlList":[]}}